<svg xmlns="http://www.w3.org/2000/svg" viewBox="0 0 760 340" fill="none">
  <rect x="10" y="10" width="740" height="320" rx="18" stroke="#141414" stroke-opacity=".18" stroke-width="2"/>
  <g stroke="#141414" stroke-opacity=".18" stroke-width="2">
    <line x1="60" y1="70" x2="730" y2="70"/>
    <line x1="60" y1="130" x2="730" y2="130"/>
    <line x1="60" y1="190" x2="730" y2="190"/>
    <line x1="60" y1="250" x2="730" y2="250"/>
  </g>

  <g fill="#141414" fill-opacity=".10" stroke="#141414" stroke-opacity=".7" stroke-width="2">
    <!-- bars -->
    <rect x="80"  y="170" width="10" height="120"/>
    <rect x="100" y="150" width="10" height="140"/>
    <rect x="120" y="120" width="10" height="170"/>
    <rect x="140" y="140" width="10" height="150"/>
    <rect x="160" y="110" width="10" height="180"/>
    <rect x="180" y="90"  width="10" height="200"/>
    <rect x="200" y="130" width="10" height="160"/>
    <rect x="220" y="100" width="10" height="190"/>
    <rect x="240" y="85"  width="10" height="205"/>
    <rect x="260" y="140" width="10" height="150"/>
    <rect x="280" y="160" width="10" height="130"/>
    <rect x="300" y="120" width="10" height="170"/>
    <rect x="320" y="95"  width="10" height="195"/>
    <rect x="340" y="140" width="10" height="150"/>
    <rect x="360" y="110" width="10" height="180"/>
    <rect x="380" y="150" width="10" height="140"/>
    <rect x="400" y="135" width="10" height="155"/>
    <rect x="420" y="100" width="10" height="190"/>
    <rect x="440" y="80"  width="10" height="210"/>
    <rect x="460" y="110" width="10" height="180"/>
    <rect x="480" y="140" width="10" height="150"/>
    <rect x="500" y="160" width="10" height="130"/>
    <rect x="520" y="125" width="10" height="165"/>
    <rect x="540" y="95"  width="10" height="195"/>
    <rect x="560" y="110" width="10" height="180"/>
    <rect x="580" y="140" width="10" height="150"/>
    <rect x="600" y="170" width="10" height="120"/>
    <rect x="620" y="130" width="10" height="160"/>
    <rect x="640" y="90"  width="10" height="200"/>
    <rect x="660" y="110" width="10" height="180"/>
    <rect x="680" y="80"  width="10" height="210"/>
  </g>

  <g fill="#141414" fill-opacity=".7" font-family="IBM Plex Mono, monospace" font-size="16">
    <text x="60" y="318">MON</text>
    <text x="160" y="318">TUE</text>
    <text x="260" y="318">WED</text>
    <text x="360" y="318">THU</text>
    <text x="460" y="318">FRI</text>
    <text x="560" y="318">SAT</text>
    <text x="660" y="318">SUN</text>
  </g>
</svg>
