<svg xmlns="http://www.w3.org/2000/svg" viewBox="0 0 220 220" fill="none">
  <circle cx="110" cy="110" r="96" stroke="#141414" stroke-opacity=".25" stroke-width="2"/>
  <!-- ticks -->
  <g stroke="#141414" stroke-width="3" stroke-linecap="round" opacity=".9">
    <line x1="110" y1="6" x2="110" y2="18"/>
    <line x1="110" y1="202" x2="110" y2="214"/>
    <line x1="6" y1="110" x2="18" y2="110"/>
    <line x1="202" y1="110" x2="214" y2="110"/>
  </g>
  <g stroke="#141414" stroke-width="2" stroke-linecap="round" opacity=".8">
    <!-- 24 tick marks -->
    <!-- generated-looking, hand-written -->
    <line x1="110" y1="10" x2="110" y2="22" transform="rotate(15 110 110)"/>
    <line x1="110" y1="10" x2="110" y2="22" transform="rotate(30 110 110)"/>
    <line x1="110" y1="10" x2="110" y2="22" transform="rotate(45 110 110)"/>
    <line x1="110" y1="10" x2="110" y2="22" transform="rotate(60 110 110)"/>
    <line x1="110" y1="10" x2="110" y2="22" transform="rotate(75 110 110)"/>
    <line x1="110" y1="10" x2="110" y2="22" transform="rotate(90 110 110)"/>
    <line x1="110" y1="10" x2="110" y2="22" transform="rotate(105 110 110)"/>
    <line x1="110" y1="10" x2="110" y2="22" transform="rotate(120 110 110)"/>
    <line x1="110" y1="10" x2="110" y2="22" transform="rotate(135 110 110)"/>
    <line x1="110" y1="10" x2="110" y2="22" transform="rotate(150 110 110)"/>
    <line x1="110" y1="10" x2="110" y2="22" transform="rotate(165 110 110)"/>
    <line x1="110" y1="10" x2="110" y2="22" transform="rotate(180 110 110)"/>
    <line x1="110" y1="10" x2="110" y2="22" transform="rotate(195 110 110)"/>
    <line x1="110" y1="10" x2="110" y2="22" transform="rotate(210 110 110)"/>
    <line x1="110" y1="10" x2="110" y2="22" transform="rotate(225 110 110)"/>
    <line x1="110" y1="10" x2="110" y2="22" transform="rotate(240 110 110)"/>
    <line x1="110" y1="10" x2="110" y2="22" transform="rotate(255 110 110)"/>
    <line x1="110" y1="10" x2="110" y2="22" transform="rotate(270 110 110)"/>
    <line x1="110" y1="10" x2="110" y2="22" transform="rotate(285 110 110)"/>
    <line x1="110" y1="10" x2="110" y2="22" transform="rotate(300 110 110)"/>
    <line x1="110" y1="10" x2="110" y2="22" transform="rotate(315 110 110)"/>
    <line x1="110" y1="10" x2="110" y2="22" transform="rotate(330 110 110)"/>
    <line x1="110" y1="10" x2="110" y2="22" transform="rotate(345 110 110)"/>
  </g>
  <circle cx="72" cy="164" r="6" fill="#141414" opacity=".9"/>
</svg>
